<?xml version="1.0" encoding="UTF-8" standalone="no"?>
<!-- Created with Inkscape (http://www.inkscape.org/) -->

<svg
   xmlns:dc="http://purl.org/dc/elements/1.1/"
   xmlns:cc="http://creativecommons.org/ns#"
   xmlns:rdf="http://www.w3.org/1999/02/22-rdf-syntax-ns#"
   xmlns:svg="http://www.w3.org/2000/svg"
   xmlns="http://www.w3.org/2000/svg"
   xmlns:sodipodi="http://sodipodi.sourceforge.net/DTD/sodipodi-0.dtd"
   xmlns:inkscape="http://www.inkscape.org/namespaces/inkscape"
   width="210mm"
   height="297mm"
   viewBox="0 0 210 297"
   version="1.1"
   id="svg8"
   inkscape:version="0.92.2 (5c3e80d, 2017-08-06)"
   sodipodi:docname="camera-stand.svg">
  <defs
     id="defs2" />
  <sodipodi:namedview
     id="base"
     pagecolor="#ffffff"
     bordercolor="#666666"
     borderopacity="1.0"
     inkscape:pageopacity="0.0"
     inkscape:pageshadow="2"
     inkscape:zoom="1.4133192"
     inkscape:cx="241.00314"
     inkscape:cy="681.05669"
     inkscape:document-units="mm"
     inkscape:current-layer="layer1"
     showgrid="true"
     showguides="true"
     inkscape:guide-bbox="true"
     inkscape:object-paths="false"
     inkscape:snap-intersection-paths="true"
     inkscape:snap-smooth-nodes="true"
     inkscape:snap-bbox="true"
     inkscape:snap-bbox-midpoints="true"
     inkscape:window-width="1920"
     inkscape:window-height="986"
     inkscape:window-x="-11"
     inkscape:window-y="-11"
     inkscape:window-maximized="1">
    <inkscape:grid
       type="xygrid"
       id="grid4508"
       units="mm"
       spacingx="1"
       spacingy="1"
       empspacing="4" />
    <sodipodi:guide
       position="52,292"
       orientation="0,1"
       id="guide4543"
       inkscape:locked="false" />
    <sodipodi:guide
       position="28,244"
       orientation="0,1"
       id="guide4545"
       inkscape:locked="false" />
    <sodipodi:guide
       position="230,209"
       orientation="0,1"
       id="guide4547"
       inkscape:locked="false" />
    <sodipodi:guide
       position="222.06164,285.75001"
       orientation="1,0"
       id="guide4549"
       inkscape:locked="false" />
    <sodipodi:guide
       position="218.06164,264.75538"
       orientation="1,0"
       id="guide4553"
       inkscape:locked="false" />
    <sodipodi:guide
       position="178,217"
       orientation="1,0"
       id="guide4594"
       inkscape:locked="false" />
    <sodipodi:guide
       position="126,225"
       orientation="0,1"
       id="guide4626"
       inkscape:locked="false" />
    <sodipodi:guide
       position="202.06164,164.96909"
       orientation="1,0"
       id="guide4630"
       inkscape:locked="false" />
    <sodipodi:guide
       position="8,240"
       orientation="1,0"
       id="guide4724"
       inkscape:locked="false" />
    <sodipodi:guide
       position="32.8119,181.80122"
       orientation="0,1"
       id="guide4771"
       inkscape:locked="false" />
    <sodipodi:guide
       position="143,197.00001"
       orientation="0,1"
       id="guide4775"
       inkscape:locked="false" />
    <sodipodi:guide
       position="265,199"
       orientation="1,0"
       id="guide4796"
       inkscape:locked="false" />
    <sodipodi:guide
       position="295.99999,201.00002"
       orientation="1,0"
       id="guide4808"
       inkscape:locked="false" />
    <sodipodi:guide
       position="47.999999,240.00001"
       orientation="1,0"
       id="guide4554"
       inkscape:locked="false" />
  </sodipodi:namedview>
  <metadata
     id="metadata5">
    <rdf:RDF>
      <cc:Work
         rdf:about="">
        <dc:format>image/svg+xml</dc:format>
        <dc:type
           rdf:resource="http://purl.org/dc/dcmitype/StillImage" />
        <dc:title />
      </cc:Work>
    </rdf:RDF>
  </metadata>
  <g
     inkscape:label="Layer 1"
     inkscape:groupmode="layer"
     id="layer1">
    <g
       id="g887"
       transform="rotate(-90,113.5,117.5)"
       style="stroke-width:0.35277778;stroke-miterlimit:4;stroke-dasharray:none">
      <path
         sodipodi:nodetypes="ccccccccccccccccc"
         inkscape:connector-curvature="0"
         id="rect4504"
         d="M 10.000004,12.000004 10,8 h 53 v 4.000001 L 73,12 87.25,12.000001 122,12 V 7.9999908 L 130,8 V 91.999996 96 h -8 v -4 l -59,-9e-6 v 4 H 10 Z"
         style="opacity:1;fill:none;fill-opacity:1;fill-rule:nonzero;stroke:#000000;stroke-width:0.35277778;stroke-linecap:round;stroke-linejoin:round;stroke-miterlimit:4;stroke-dasharray:none;stroke-dashoffset:0;stroke-opacity:1" />
      <path
         sodipodi:nodetypes="ccccccccccccccc"
         inkscape:connector-curvature="0"
         id="rect4510"
         d="M 118.00024,32.000001 118,72 h 3.99976 L 122,32.000001 Z M 121.99976,72 l 4.8e-4,16 H 126 l -4.8e-4,-16 z M 118,72 h -4.00027 l 4.8e-4,16 h 4.00027 z"
         style="opacity:1;fill:none;fill-opacity:1;fill-rule:nonzero;stroke:#000000;stroke-width:0.35277778;stroke-linecap:round;stroke-linejoin:round;stroke-miterlimit:4;stroke-dasharray:none;stroke-dashoffset:0;stroke-opacity:1" />
      <rect
         transform="scale(1,-1)"
         style="opacity:1;fill:none;fill-opacity:1;fill-rule:nonzero;stroke:#000000;stroke-width:0.35277778;stroke-linecap:round;stroke-linejoin:round;stroke-miterlimit:4;stroke-dasharray:none;stroke-dashoffset:0;stroke-opacity:1"
         id="rect4516"
         width="4"
         height="16.000002"
         x="122"
         y="-32" />
      <rect
         transform="scale(1,-1)"
         style="opacity:1;fill:none;fill-opacity:1;fill-rule:nonzero;stroke:#000000;stroke-width:0.35277778;stroke-linecap:round;stroke-linejoin:round;stroke-miterlimit:4;stroke-dasharray:none;stroke-dashoffset:0;stroke-opacity:1"
         id="rect4520"
         width="4"
         height="16"
         x="114"
         y="-32" />
    </g>
    <g
       id="g4749"
       transform="rotate(90,164.65615,-64.656146)"
       style="stroke-width:0.35277778;stroke-miterlimit:4;stroke-dasharray:none">
      <path
         style="opacity:1;fill:none;fill-opacity:1;fill-rule:nonzero;stroke:#000000;stroke-width:1.33333337;stroke-linecap:round;stroke-linejoin:round;stroke-miterlimit:4;stroke-dasharray:none;stroke-dashoffset:0;stroke-opacity:1"
         d="m 944.88146,30.237146 v 15.117188 h -79.36964 v 151.181106 151.1811 h 79.36963 v 15.11718 h 56.69335 v -15.11718 l 15.1186,2.6e-4 v -15.11914 -60.47071 h 15.1171 v -75.59179 -75.58985 h -15.1171 V 60.472656 45.353516 l -15.1186,8.18e-4 V 30.237146 Z"
         transform="matrix(0.26458333,0,0,0.26458333,5.3122924,0)"
         id="rect4506"
         inkscape:connector-curvature="0"
         sodipodi:nodetypes="ccccccccccccccccccccc" />
      <rect
         y="45.999996"
         x="252.31236"
         height="12"
         width="12"
         id="rect4578"
         style="opacity:1;fill:none;fill-opacity:1;fill-rule:nonzero;stroke:#000000;stroke-width:0.35277778;stroke-linecap:round;stroke-linejoin:round;stroke-miterlimit:4;stroke-dasharray:none;stroke-dashoffset:0;stroke-opacity:1" />
    </g>
    <g
       id="g4759"
       transform="rotate(-90,202.24272,206.24278)"
       style="stroke-width:0.35277778;stroke-miterlimit:4;stroke-dasharray:none">
      <path
         style="opacity:1;fill:none;fill-opacity:1;fill-rule:nonzero;stroke:#000000;stroke-width:1.33333337;stroke-linecap:round;stroke-linejoin:round;stroke-miterlimit:4;stroke-dasharray:none;stroke-dashoffset:0;stroke-opacity:1"
         d="m 1058.2677,30.237146 v 15.117188 h -15.1181 v 151.181106 151.1811 h 15.1181 v 15.11718 h 56.6933 v -15.11718 l 79.3691,2.6e-4 v -15.11914 h 15.1191 V 272.125 h -15.1191 V 120.94531 h 15.1191 V 60.472656 h -15.1191 v -15.11914 l -79.3691,8.18e-4 V 30.237146 Z"
         transform="matrix(0.26458333,0,0,0.26458333,35.4854,0)"
         id="path4564"
         inkscape:connector-curvature="0"
         sodipodi:nodetypes="cccccccccccccccccccccc" />
      <g
         transform="translate(133.42376,-162.88447)"
         id="g4660"
         style="stroke-width:0.35277778;stroke-miterlimit:4;stroke-dasharray:none">
        <rect
           y="207.38446"
           x="198.56137"
           height="1.5"
           width="7"
           id="rect4596"
           style="opacity:1;fill:none;fill-opacity:1;fill-rule:nonzero;stroke:#000000;stroke-width:0.35277778;stroke-linecap:round;stroke-linejoin:round;stroke-miterlimit:4;stroke-dasharray:none;stroke-dashoffset:0;stroke-opacity:1" />
        <rect
           style="opacity:1;fill:none;fill-opacity:1;fill-rule:nonzero;stroke:#000000;stroke-width:0.35277778;stroke-linecap:round;stroke-linejoin:round;stroke-miterlimit:4;stroke-dasharray:none;stroke-dashoffset:0;stroke-opacity:1"
           id="rect4598"
           width="7"
           height="1.5"
           x="198.56137"
           y="220.88446" />
      </g>
    </g>
    <g
       id="g881"
       transform="rotate(-180,159.06164,83)"
       style="stroke-width:0.35277778;stroke-miterlimit:4;stroke-dasharray:none">
      <path
         sodipodi:nodetypes="ccccccccccccccccccccccccccccc"
         inkscape:connector-curvature="0"
         style="opacity:1;fill:none;fill-opacity:1;fill-rule:nonzero;stroke:#000000;stroke-width:0.35277778;stroke-linecap:round;stroke-linejoin:round;stroke-miterlimit:4;stroke-dasharray:none;stroke-dashoffset:0;stroke-opacity:1"
         d="m 218.06133,71.999998 h 4.00027 l 2.7e-4,16 h -4.00027 l 4e-5,4.000003 h 4 V 151 h -3.93836 v 7 3 h -4.06164 L 143,100 v -11.999999 -36 -36 -12.0000004 l 71.06164,-60.9999996 h 4.06164 v 3 7 h 3.93836 v 59 h -4 l -4e-5,4 h 4.00027 l -2.7e-4,16 h -4.00027 V 52 Z"
         id="path4562" />
      <path
         id="path4570"
         d="m 169.87528,52 a 8.5000038,8.5000038 0 0 1 -8.50001,8.500004 8.5000038,8.5000038 0 0 1 -8.5,-8.500004 8.5000038,8.5000038 0 0 1 8.5,-8.500004 A 8.5000038,8.5000038 0 0 1 169.87528,52 Z"
         style="opacity:1;fill:none;fill-opacity:1;fill-rule:nonzero;stroke:#000000;stroke-width:0.35277778;stroke-linecap:round;stroke-linejoin:round;stroke-miterlimit:4;stroke-dasharray:none;stroke-dashoffset:0;stroke-opacity:1"
         inkscape:connector-curvature="0" />
      <path
         inkscape:connector-curvature="0"
         id="path4584"
         d="m 205.68646,52.000001 a 3.6248183,3.6248183 0 0 1 -3.62482,3.624818 3.6248183,3.6248183 0 0 1 -3.62482,-3.624818 3.6248183,3.6248183 0 0 1 3.62482,-3.624818 3.6248183,3.6248183 0 0 1 3.62482,3.624818 z"
         style="opacity:1;fill:none;fill-opacity:1;fill-rule:nonzero;stroke:#000000;stroke-width:0.35277778;stroke-linecap:round;stroke-linejoin:round;stroke-miterlimit:4;stroke-dasharray:none;stroke-dashoffset:0;stroke-opacity:1" />
      <path
         inkscape:connector-curvature="0"
         id="path4765"
         d="m 143.06164,91.999991 h 75"
         style="fill:none;fill-rule:evenodd;stroke:#0000ff;stroke-width:0.35277778;stroke-linecap:butt;stroke-linejoin:miter;stroke-miterlimit:4;stroke-dasharray:none;stroke-dashoffset:0.03439583;stroke-opacity:1" />
      <path
         id="rect4790"
         d="m 199,92 h 15 v 4 h -15 z"
         style="opacity:1;fill:none;fill-opacity:1;fill-rule:nonzero;stroke:#000000;stroke-width:0.35277778;stroke-linecap:round;stroke-linejoin:round;stroke-miterlimit:4;stroke-dasharray:none;stroke-dashoffset:0.13;stroke-opacity:1"
         inkscape:connector-curvature="0" />
      <path
         id="rect4792"
         d="m 182,95.999992 h 15 v 4 h -15 z"
         style="opacity:1;fill:none;fill-opacity:1;fill-rule:nonzero;stroke:#000000;stroke-width:0.35277778;stroke-linecap:round;stroke-linejoin:round;stroke-miterlimit:4;stroke-dasharray:none;stroke-dashoffset:0.13;stroke-opacity:1"
         inkscape:connector-curvature="0" />
      <path
         style="fill:none;fill-rule:evenodd;stroke:#0000ff;stroke-width:0.35277778;stroke-linecap:butt;stroke-linejoin:miter;stroke-miterlimit:4;stroke-dasharray:none;stroke-dashoffset:0.03439583;stroke-opacity:1"
         d="m 143,12.000001 h 75"
         id="path4821"
         inkscape:connector-curvature="0" />
      <path
         id="rect4823"
         d="m 199,-11.99999 h 15 v 3.9999995 h -15 z"
         style="opacity:1;fill:none;fill-opacity:1;fill-rule:nonzero;stroke:#000000;stroke-width:0.35277778;stroke-linecap:round;stroke-linejoin:round;stroke-miterlimit:4;stroke-dasharray:none;stroke-dashoffset:0.13;stroke-opacity:1"
         transform="scale(1,-1)"
         inkscape:connector-curvature="0" />
      <path
         id="rect4825"
         d="m 182,-7.9999909 h 15 v 4 h -15 z"
         style="opacity:1;fill:none;fill-opacity:1;fill-rule:nonzero;stroke:#000000;stroke-width:0.35277778;stroke-linecap:round;stroke-linejoin:round;stroke-miterlimit:4;stroke-dasharray:none;stroke-dashoffset:0.13;stroke-opacity:1"
         transform="scale(1,-1)"
         inkscape:connector-curvature="0" />
    </g>
    <flowRoot
       xml:space="preserve"
       id="flowRoot100"
       style="fill:black;fill-opacity:1;stroke:none;font-family:sans-serif;font-style:normal;font-weight:normal;font-size:40px;line-height:1.25;letter-spacing:0px;word-spacing:0px"><flowRegion
         id="flowRegion102"><rect
           id="rect104"
           width="196.53543"
           height="45.354332"
           x="453.5433"
           y="291.02362" /></flowRegion><flowPara
         id="flowPara106" /></flowRoot>    <path
       style="fill:#000000;stroke-width:0.18720706"
       d="m 136.87263,137.14677 c -0.0708,-0.41879 -0.0992,-0.77683 -0.0633,-0.79563 0.89654,-0.46874 1.32904,-1.10377 1.32904,-1.95138 0,-0.65372 -0.63125,-1.41752 -1.37479,-1.66347 -0.63164,-0.20894 -0.63967,-0.22581 -0.84637,-1.77847 -0.11478,-0.86214 -0.22957,-1.56753 -0.2551,-1.56753 -0.0255,0 -0.20041,-1.01092 -0.38864,-2.24648 -0.18822,-1.23557 -0.42674,-2.74965 -0.53004,-3.36462 -0.1033,-0.61497 -0.15844,-1.1475 -0.12254,-1.18341 0.0359,-0.0359 0.89467,0.79298 1.90838,1.84196 1.01371,1.04898 2.58812,2.67667 3.49868,3.6171 l 1.65558,1.70987 -0.11596,0.87718 c -0.0638,0.48245 -0.23964,1.11427 -0.39078,1.40405 -0.15115,0.28978 -0.27533,0.63655 -0.27596,0.77059 -0.001,0.29328 -0.78549,1.78974 -0.98399,1.87796 -0.0772,0.0343 -0.14041,0.14853 -0.14041,0.25379 0,0.36367 -2.3219,2.95993 -2.64714,2.95993 -0.0704,0 -0.18595,-0.34265 -0.2567,-0.76144 z"
       id="path119"
       inkscape:connector-curvature="0" />
    <path
       style="fill:#000000;stroke-width:0.18720706"
       d="m 128.03583,137.6742 c -0.22174,-0.81851 -0.68764,-3.769 -1.01248,-6.41184 -0.10125,-0.82371 -0.2584,-1.66614 -0.34922,-1.87207 -0.0908,-0.20593 -0.21877,-0.96412 -0.28432,-1.68486 -0.0656,-0.72075 -0.23035,-1.81591 -0.36621,-2.4337 -0.13586,-0.61778 -0.30499,-1.69188 -0.37584,-2.38688 l -0.12883,-1.26365 h 0.74102 c 0.64869,0 0.77033,0.0708 0.97627,0.56796 0.56846,1.37239 2.1937,1.75749 3.1943,0.75689 0.30097,-0.30097 0.54722,-0.72639 0.54722,-0.94538 0,-0.36632 0.0859,-0.39367 1.07394,-0.34201 l 1.07394,0.0561 0.23992,1.59126 c 0.13196,0.87519 0.36176,2.34945 0.51068,3.27612 0.72041,4.48285 0.99279,6.75037 0.83091,6.91731 -0.0949,0.0978 -0.17246,0.55003 -0.17246,1.00492 0,0.65203 0.11887,0.96246 0.56162,1.46673 0.38733,0.44114 0.56162,0.83622 0.56162,1.27305 0,0.34837 0.0511,0.76666 0.11364,0.92952 0.10133,0.26406 -0.29967,0.29612 -3.70327,0.29612 h -3.81691 z m 2.94191,-2.9579 c 0,-0.58153 -0.1,-0.79633 -0.48959,-1.0516 -0.43456,-0.28473 -0.54295,-0.29048 -0.96435,-0.0511 -0.65133,0.36997 -0.86996,0.77816 -0.72537,1.35427 0.17667,0.7039 0.99315,1.06333 1.66449,0.73275 0.43041,-0.21194 0.51482,-0.37334 0.51482,-0.98431 z m 0.23401,-3.33194 c 0.33865,-0.28285 0.46519,-1.78769 0.18434,-2.19213 -0.27109,-0.39036 -1.07138,-0.83158 -1.50837,-0.83158 -0.61386,0 -1.71809,1.13523 -1.71809,1.76633 0,1.13598 1.28872,2.13544 2.23577,1.73395 0.2633,-0.11162 0.62616,-0.32608 0.80635,-0.47657 z m 0.59505,-5.00275 c 0.45077,-0.45078 0.37318,-1.33029 -0.14746,-1.67143 -0.4791,-0.31392 -1.00272,-0.21162 -1.37767,0.26914 -0.33607,0.4309 -0.28844,0.89916 0.13445,1.32205 0.44972,0.44973 0.99001,0.4809 1.39068,0.0802 z"
       id="path121"
       inkscape:connector-curvature="0" />
    <path
       style="fill:#000000;stroke-width:0.70755422"
       d="m 487.57896,360.5439 c -5.11349,-3.11786 -7.29262,-13.21904 -4.8213,-22.34881 l 1.23524,-4.56336 h 3.81298 c 2.09713,0 3.81297,0.11909 3.81297,0.26466 0,0.14556 -0.82676,1.7439 -1.83726,3.55187 -2.20737,3.94942 -3.03516,10.65018 -1.71071,13.8477 0.69562,1.67938 1.32785,2.14729 2.90137,2.14729 2.40173,0 3.02658,-1.00902 4.16255,-6.72177 1.77613,-8.93203 4.91726,-12.57517 10.84239,-12.57517 5.95131,0 9.97685,6.0751 9.93244,14.98941 -0.0147,2.95287 -0.40404,6.72206 -0.86517,8.37596 l -0.83841,3.00711 h -3.81447 -3.81447 l 1.833,-3.2796 c 2.5384,-4.54168 2.71735,-11.48021 0.3571,-13.84562 -2.85519,-2.86142 -4.02788,-1.23148 -6.94042,9.64663 -1.55139,5.79434 -4.65451,8.8947 -8.89896,8.89105 -1.80587,-0.002 -4.01641,-0.5749 -5.34887,-1.38735 z"
       id="path4611"
       inkscape:connector-curvature="0"
       transform="scale(0.26458333)" />
    <path
       style="fill:#000000;stroke-width:0.70755422"
       d="m 482.56613,394.97746 0.2083,-4.2753 3.0071,-0.99956 3.00711,-0.99957 v -6.60384 -6.60384 l -3.00711,-0.9993 -3.0071,-0.99931 -0.2122,-4.01253 c -0.11671,-2.2069 0.0425,-4.00833 0.35377,-4.00319 0.31129,0.005 7.72997,2.67327 16.48595,5.92919 l 15.91997,5.91984 0.19386,4.86101 0.19386,4.86101 -16.6759,6.10035 -16.67591,6.10034 z m 19.42369,-10.66869 c 2.52519,-0.85181 4.59125,-1.84612 4.59125,-2.20958 0,-0.55695 -3.62381,-1.99407 -10.65725,-4.22639 -1.39348,-0.44228 -1.47475,-0.20937 -1.47475,4.22639 0,4.43576 0.0813,4.66867 1.47475,4.2264 0.81112,-0.25744 3.54082,-1.16501 6.066,-2.01682 z"
       id="path4613"
       inkscape:connector-curvature="0"
       transform="scale(0.26458333)" />
    <path
       style="fill:#000000;stroke-width:0.18720706"
       d="m 133.53748,113.07128 -2.6209,-1.58371 -1.63806,-2.4e-4 -1.63806,-2.6e-4 v -1.02964 -1.02964 h 1.63263 1.63264 l 2.65834,-1.59126 c 1.46209,-0.87519 2.71115,-1.59126 2.77567,-1.59126 0.0645,0 0.0922,0.52442 0.0616,1.16538 l -0.0557,1.16538 -1.58763,0.88298 c -0.87319,0.48565 -1.61295,0.95897 -1.6439,1.05184 -0.031,0.0929 0.70454,0.57289 1.63442,1.06672 l 1.69071,0.89788 v 1.09707 c 0,0.60339 -0.0632,1.09378 -0.14041,1.08977 -0.0772,-0.004 -1.31981,-0.71997 -2.7613,-1.59101 z"
       id="path4617"
       inkscape:connector-curvature="0" />
    <path
       style="fill:#000000;stroke-width:0.70755422"
       d="m 380.53284,656.63024 v -3.89155 h 11.43879 c 6.29134,0 11.21604,-0.22275 10.94378,-0.49501 -0.27225,-0.27225 -3.58891,-1.81374 -7.37035,-3.42552 l -6.87535,-2.93051 -0.2116,-2.82029 -0.2116,-2.8203 7.64092,-3.27804 7.64092,-3.27804 -11.49776,-0.0281 -11.49775,-0.0281 v -3.89155 -3.89155 h 16.62752 16.62753 l -0.004,4.77599 -0.004,4.77599 -8.48354,3.78675 c -4.66594,2.08271 -8.35353,3.9931 -8.19464,4.24532 0.15888,0.25222 3.97417,2.05058 8.4784,3.99636 l 8.18952,3.53777 0.009,4.77599 0.009,4.77599 H 397.1601 380.53258 Z"
       id="path4619"
       inkscape:connector-curvature="0"
       transform="scale(0.26458333)" />
    <path
       style="fill:#000000;stroke-width:0.18720706"
       d="m 105.26339,188.34908 c -1.95952,-0.5401 -3.7956,-1.04043 -4.08018,-1.11186 -0.50746,-0.12736 -0.51635,-0.1537 -0.46219,-1.36821 l 0.0552,-1.23836 2.6209,-0.72064 c 1.4415,-0.39635 2.74727,-0.77261 2.90171,-0.83612 0.15445,-0.0635 -1.02495,-0.47179 -2.62089,-0.90727 l -2.90172,-0.79179 -0.0553,-1.24661 c -0.0304,-0.68564 -0.0151,-1.24661 0.034,-1.24661 0.0491,0 1.95422,-0.50546 4.2335,-1.12324 2.27929,-0.61779 4.22264,-1.12325 4.31856,-1.12325 0.0959,0 0.17441,0.48527 0.17441,1.07837 v 1.07837 l -2.94851,0.63405 c -1.62168,0.34873 -3.01512,0.69248 -3.09654,0.76389 -0.0814,0.0714 1.24541,0.49781 2.94851,0.94755 l 3.09654,0.81771 v 1.07696 1.07696 l -0.70202,0.1831 c -0.38612,0.1007 -1.77714,0.45676 -3.09117,0.79123 -1.31403,0.33447 -2.32495,0.66198 -2.24649,0.7278 0.0785,0.0658 1.15358,0.34979 2.38915,0.63106 1.23556,0.28126 2.56239,0.59392 2.94851,0.69479 l 0.70202,0.1834 v 1.02242 c 0,0.85543 -0.0535,1.01964 -0.32761,1.00536 -0.18018,-0.009 -1.93085,-0.45896 -3.89037,-0.99906 z"
       id="path4621"
       inkscape:connector-curvature="0" />
  </g>
</svg>
